G04 #@! TF.FileFunction,Legend,Bot*
%FSLAX46Y46*%
G04 Gerber Fmt 4.6, Leading zero omitted, Abs format (unit mm)*
G04 Created by KiCad (PCBNEW 4.0.6) date Sun Apr 30 02:44:44 2017*
%MOMM*%
%LPD*%
G01*
G04 APERTURE LIST*
%ADD10C,0.100000*%
%ADD11C,0.120000*%
%ADD12C,0.150000*%
G04 APERTURE END LIST*
D10*
D11*
X14566400Y-38618900D02*
X15826400Y-38618900D01*
X21386400Y-38618900D02*
X20126400Y-38618900D01*
X14566400Y-42378900D02*
X14566400Y-38618900D01*
X21386400Y-44628900D02*
X21386400Y-38618900D01*
X19240000Y-54735000D02*
X17240000Y-54735000D01*
X17240000Y-51785000D02*
X19240000Y-51785000D01*
X29930000Y-45851000D02*
X31930000Y-45851000D01*
X31930000Y-47901000D02*
X29930000Y-47901000D01*
X29870000Y-49101000D02*
X31870000Y-49101000D01*
X31870000Y-52051000D02*
X29870000Y-52051000D01*
X19240000Y-49205000D02*
X17240000Y-49205000D01*
X17240000Y-47155000D02*
X19240000Y-47155000D01*
X18965000Y-28130000D02*
X16965000Y-28130000D01*
X16965000Y-26080000D02*
X18965000Y-26080000D01*
X18965000Y-33660000D02*
X16965000Y-33660000D01*
X16965000Y-30710000D02*
X18965000Y-30710000D01*
X17300000Y-22130000D02*
X17300000Y-23130000D01*
X18660000Y-23130000D02*
X18660000Y-22130000D01*
D12*
X21928781Y-39766995D02*
X22738305Y-39766995D01*
X22833543Y-39814614D01*
X22881162Y-39862233D01*
X22928781Y-39957471D01*
X22928781Y-40147948D01*
X22881162Y-40243186D01*
X22833543Y-40290805D01*
X22738305Y-40338424D01*
X21928781Y-40338424D01*
X22024019Y-40766995D02*
X21976400Y-40814614D01*
X21928781Y-40909852D01*
X21928781Y-41147948D01*
X21976400Y-41243186D01*
X22024019Y-41290805D01*
X22119257Y-41338424D01*
X22214495Y-41338424D01*
X22357352Y-41290805D01*
X22928781Y-40719376D01*
X22928781Y-41338424D01*
X18406666Y-56317143D02*
X18454285Y-56364762D01*
X18597142Y-56412381D01*
X18692380Y-56412381D01*
X18835238Y-56364762D01*
X18930476Y-56269524D01*
X18978095Y-56174286D01*
X19025714Y-55983810D01*
X19025714Y-55840952D01*
X18978095Y-55650476D01*
X18930476Y-55555238D01*
X18835238Y-55460000D01*
X18692380Y-55412381D01*
X18597142Y-55412381D01*
X18454285Y-55460000D01*
X18406666Y-55507619D01*
X17549523Y-55412381D02*
X17740000Y-55412381D01*
X17835238Y-55460000D01*
X17882857Y-55507619D01*
X17978095Y-55650476D01*
X18025714Y-55840952D01*
X18025714Y-56221905D01*
X17978095Y-56317143D01*
X17930476Y-56364762D01*
X17835238Y-56412381D01*
X17644761Y-56412381D01*
X17549523Y-56364762D01*
X17501904Y-56317143D01*
X17454285Y-56221905D01*
X17454285Y-55983810D01*
X17501904Y-55888571D01*
X17549523Y-55840952D01*
X17644761Y-55793333D01*
X17835238Y-55793333D01*
X17930476Y-55840952D01*
X17978095Y-55888571D01*
X18025714Y-55983810D01*
X31096666Y-44933143D02*
X31144285Y-44980762D01*
X31287142Y-45028381D01*
X31382380Y-45028381D01*
X31525238Y-44980762D01*
X31620476Y-44885524D01*
X31668095Y-44790286D01*
X31715714Y-44599810D01*
X31715714Y-44456952D01*
X31668095Y-44266476D01*
X31620476Y-44171238D01*
X31525238Y-44076000D01*
X31382380Y-44028381D01*
X31287142Y-44028381D01*
X31144285Y-44076000D01*
X31096666Y-44123619D01*
X30191904Y-44028381D02*
X30668095Y-44028381D01*
X30715714Y-44504571D01*
X30668095Y-44456952D01*
X30572857Y-44409333D01*
X30334761Y-44409333D01*
X30239523Y-44456952D01*
X30191904Y-44504571D01*
X30144285Y-44599810D01*
X30144285Y-44837905D01*
X30191904Y-44933143D01*
X30239523Y-44980762D01*
X30334761Y-45028381D01*
X30572857Y-45028381D01*
X30668095Y-44980762D01*
X30715714Y-44933143D01*
X31036666Y-48233143D02*
X31084285Y-48280762D01*
X31227142Y-48328381D01*
X31322380Y-48328381D01*
X31465238Y-48280762D01*
X31560476Y-48185524D01*
X31608095Y-48090286D01*
X31655714Y-47899810D01*
X31655714Y-47756952D01*
X31608095Y-47566476D01*
X31560476Y-47471238D01*
X31465238Y-47376000D01*
X31322380Y-47328381D01*
X31227142Y-47328381D01*
X31084285Y-47376000D01*
X31036666Y-47423619D01*
X30179523Y-47661714D02*
X30179523Y-48328381D01*
X30417619Y-47280762D02*
X30655714Y-47995048D01*
X30036666Y-47995048D01*
X18597143Y-50313334D02*
X18644762Y-50265715D01*
X18692381Y-50122858D01*
X18692381Y-50027620D01*
X18644762Y-49884762D01*
X18549524Y-49789524D01*
X18454286Y-49741905D01*
X18263810Y-49694286D01*
X18120952Y-49694286D01*
X17930476Y-49741905D01*
X17835238Y-49789524D01*
X17740000Y-49884762D01*
X17692381Y-50027620D01*
X17692381Y-50122858D01*
X17740000Y-50265715D01*
X17787619Y-50313334D01*
X17692381Y-50646667D02*
X17692381Y-51265715D01*
X18073333Y-50932381D01*
X18073333Y-51075239D01*
X18120952Y-51170477D01*
X18168571Y-51218096D01*
X18263810Y-51265715D01*
X18501905Y-51265715D01*
X18597143Y-51218096D01*
X18644762Y-51170477D01*
X18692381Y-51075239D01*
X18692381Y-50789524D01*
X18644762Y-50694286D01*
X18597143Y-50646667D01*
X18131666Y-29762143D02*
X18179285Y-29809762D01*
X18322142Y-29857381D01*
X18417380Y-29857381D01*
X18560238Y-29809762D01*
X18655476Y-29714524D01*
X18703095Y-29619286D01*
X18750714Y-29428810D01*
X18750714Y-29285952D01*
X18703095Y-29095476D01*
X18655476Y-29000238D01*
X18560238Y-28905000D01*
X18417380Y-28857381D01*
X18322142Y-28857381D01*
X18179285Y-28905000D01*
X18131666Y-28952619D01*
X17750714Y-28952619D02*
X17703095Y-28905000D01*
X17607857Y-28857381D01*
X17369761Y-28857381D01*
X17274523Y-28905000D01*
X17226904Y-28952619D01*
X17179285Y-29047857D01*
X17179285Y-29143095D01*
X17226904Y-29285952D01*
X17798333Y-29857381D01*
X17179285Y-29857381D01*
X18131666Y-35242143D02*
X18179285Y-35289762D01*
X18322142Y-35337381D01*
X18417380Y-35337381D01*
X18560238Y-35289762D01*
X18655476Y-35194524D01*
X18703095Y-35099286D01*
X18750714Y-34908810D01*
X18750714Y-34765952D01*
X18703095Y-34575476D01*
X18655476Y-34480238D01*
X18560238Y-34385000D01*
X18417380Y-34337381D01*
X18322142Y-34337381D01*
X18179285Y-34385000D01*
X18131666Y-34432619D01*
X17179285Y-35337381D02*
X17750714Y-35337381D01*
X17465000Y-35337381D02*
X17465000Y-34337381D01*
X17560238Y-34480238D01*
X17655476Y-34575476D01*
X17750714Y-34623095D01*
X18882381Y-21796667D02*
X19596667Y-21796667D01*
X19739524Y-21749047D01*
X19834762Y-21653809D01*
X19882381Y-21510952D01*
X19882381Y-21415714D01*
X19882381Y-22272857D02*
X18882381Y-22272857D01*
X18882381Y-22653810D01*
X18930000Y-22749048D01*
X18977619Y-22796667D01*
X19072857Y-22844286D01*
X19215714Y-22844286D01*
X19310952Y-22796667D01*
X19358571Y-22749048D01*
X19406190Y-22653810D01*
X19406190Y-22272857D01*
X18882381Y-23177619D02*
X18882381Y-23796667D01*
X19263333Y-23463333D01*
X19263333Y-23606191D01*
X19310952Y-23701429D01*
X19358571Y-23749048D01*
X19453810Y-23796667D01*
X19691905Y-23796667D01*
X19787143Y-23749048D01*
X19834762Y-23701429D01*
X19882381Y-23606191D01*
X19882381Y-23320476D01*
X19834762Y-23225238D01*
X19787143Y-23177619D01*
M02*
