G04 #@! TF.FileFunction,Soldermask,Top*
%FSLAX46Y46*%
G04 Gerber Fmt 4.6, Leading zero omitted, Abs format (unit mm)*
G04 Created by KiCad (PCBNEW 4.0.6) date Sun Apr 30 02:44:44 2017*
%MOMM*%
%LPD*%
G01*
G04 APERTURE LIST*
%ADD10C,0.100000*%
%ADD11R,2.100000X2.100000*%
%ADD12O,2.100000X2.100000*%
%ADD13O,1.250000X2.400000*%
%ADD14R,1.900000X1.700000*%
%ADD15C,0.254000*%
G04 APERTURE END LIST*
D10*
D11*
X16935220Y-16935220D03*
D12*
X16935220Y-14395220D03*
X19475220Y-16935220D03*
X19475220Y-14395220D03*
X22015220Y-16935220D03*
X22015220Y-14395220D03*
X24555220Y-16935220D03*
X24555220Y-14395220D03*
X27095220Y-16935220D03*
X27095220Y-14395220D03*
X29635220Y-16935220D03*
X29635220Y-14395220D03*
X32175220Y-16935220D03*
X32175220Y-14395220D03*
X34715220Y-16935220D03*
X34715220Y-14395220D03*
X37255220Y-16935220D03*
X37255220Y-14395220D03*
X39795220Y-16935220D03*
X39795220Y-14395220D03*
X42335220Y-16935220D03*
X42335220Y-14395220D03*
X44875220Y-16935220D03*
X44875220Y-14395220D03*
X47415220Y-16935220D03*
X47415220Y-14395220D03*
D13*
X35368000Y-38162000D03*
X34098000Y-38162000D03*
X32828000Y-38162000D03*
X31558000Y-38162000D03*
X30288000Y-38162000D03*
X29018000Y-38162000D03*
X27748000Y-38162000D03*
X26478000Y-38162000D03*
X35368000Y-41972000D03*
X34098000Y-41972000D03*
X32828000Y-41972000D03*
X31558000Y-41972000D03*
X30288000Y-41972000D03*
X29018000Y-41972000D03*
X27748000Y-41972000D03*
X26478000Y-41972000D03*
D11*
X35350000Y-31550000D03*
D12*
X35350000Y-34090000D03*
X32810000Y-31550000D03*
X32810000Y-34090000D03*
X30270000Y-31550000D03*
X30270000Y-34090000D03*
X27730000Y-31550000D03*
X27730000Y-34090000D03*
X25190000Y-31550000D03*
X25190000Y-34090000D03*
D11*
X32810000Y-23930000D03*
D12*
X32810000Y-26470000D03*
X30270000Y-23930000D03*
X30270000Y-26470000D03*
X27730000Y-23930000D03*
X27730000Y-26470000D03*
X25190000Y-23930000D03*
X25190000Y-26470000D03*
D14*
X41810660Y-29201170D03*
X40110660Y-29201170D03*
X41850030Y-25417840D03*
X40150030Y-25417840D03*
D15*
G36*
X41402787Y-29810780D02*
X40526793Y-29810780D01*
X40518533Y-28604780D01*
X41394527Y-28604780D01*
X41402787Y-29810780D01*
X41402787Y-29810780D01*
G37*
X41402787Y-29810780D02*
X40526793Y-29810780D01*
X40518533Y-28604780D01*
X41394527Y-28604780D01*
X41402787Y-29810780D01*
G36*
X41413030Y-26007450D02*
X40567030Y-26007450D01*
X40567030Y-24861450D01*
X41413030Y-24861450D01*
X41413030Y-26007450D01*
X41413030Y-26007450D01*
G37*
X41413030Y-26007450D02*
X40567030Y-26007450D01*
X40567030Y-24861450D01*
X41413030Y-24861450D01*
X41413030Y-26007450D01*
M02*
