M48
;DRILL file {KiCad 4.0.6} date Mon Mar 20 23:04:23 2017
;FORMAT={-:-/ absolute / metric / decimal}
FMAT,2
METRIC,TZ
T1C0.400
T2C1.000
%
G90
G05
M71
T1
X34.098Y-44.448
X35.368Y-46.874
T2
X16.935Y-14.395
X16.935Y-16.935
X19.475Y-14.395
X19.475Y-16.935
X22.015Y-14.395
X22.015Y-16.935
X24.555Y-14.395
X24.555Y-16.935
X25.19Y-23.93
X25.19Y-26.47
X25.19Y-31.55
X25.19Y-34.09
X27.095Y-14.395
X27.095Y-16.935
X27.73Y-23.93
X27.73Y-26.47
X27.73Y-31.55
X27.73Y-34.09
X29.635Y-14.395
X29.635Y-16.935
X30.27Y-23.93
X30.27Y-26.47
X30.27Y-31.55
X30.27Y-34.09
X32.175Y-14.395
X32.175Y-16.935
X32.81Y-23.93
X32.81Y-26.47
X32.81Y-31.55
X32.81Y-34.09
X34.715Y-14.395
X34.715Y-16.935
X35.35Y-31.55
X35.35Y-34.09
X37.255Y-14.395
X37.255Y-16.935
X39.795Y-14.395
X39.795Y-16.935
X42.335Y-14.395
X42.335Y-16.935
X44.875Y-14.395
X44.875Y-16.935
X47.415Y-14.395
X47.415Y-16.935
T0
M30
