G04 #@! TF.FileFunction,Soldermask,Bot*
%FSLAX46Y46*%
G04 Gerber Fmt 4.6, Leading zero omitted, Abs format (unit mm)*
G04 Created by KiCad (PCBNEW 4.0.6) date Sun Apr 30 02:44:44 2017*
%MOMM*%
%LPD*%
G01*
G04 APERTURE LIST*
%ADD10C,0.100000*%
%ADD11R,2.100000X2.100000*%
%ADD12O,2.100000X2.100000*%
%ADD13R,4.200000X2.400000*%
%ADD14R,1.900000X2.400000*%
%ADD15R,2.400000X2.900000*%
%ADD16R,2.400000X2.000000*%
%ADD17R,1.700000X1.900000*%
%ADD18C,0.254000*%
G04 APERTURE END LIST*
D10*
D11*
X16935220Y-16935220D03*
D12*
X16935220Y-14395220D03*
X19475220Y-16935220D03*
X19475220Y-14395220D03*
X22015220Y-16935220D03*
X22015220Y-14395220D03*
X24555220Y-16935220D03*
X24555220Y-14395220D03*
X27095220Y-16935220D03*
X27095220Y-14395220D03*
X29635220Y-16935220D03*
X29635220Y-14395220D03*
X32175220Y-16935220D03*
X32175220Y-14395220D03*
X34715220Y-16935220D03*
X34715220Y-14395220D03*
X37255220Y-16935220D03*
X37255220Y-14395220D03*
X39795220Y-16935220D03*
X39795220Y-14395220D03*
X42335220Y-16935220D03*
X42335220Y-14395220D03*
X44875220Y-16935220D03*
X44875220Y-14395220D03*
X47415220Y-16935220D03*
X47415220Y-14395220D03*
D11*
X35350000Y-31550000D03*
D12*
X35350000Y-34090000D03*
X32810000Y-31550000D03*
X32810000Y-34090000D03*
X30270000Y-31550000D03*
X30270000Y-34090000D03*
X27730000Y-31550000D03*
X27730000Y-34090000D03*
X25190000Y-31550000D03*
X25190000Y-34090000D03*
D11*
X32810000Y-23930000D03*
D12*
X32810000Y-26470000D03*
X30270000Y-23930000D03*
X30270000Y-26470000D03*
X27730000Y-23930000D03*
X27730000Y-26470000D03*
X25190000Y-23930000D03*
X25190000Y-26470000D03*
D13*
X17976400Y-37378900D03*
D14*
X17976400Y-43678900D03*
X15676400Y-43678900D03*
X20276400Y-43678900D03*
D15*
X16240000Y-53260000D03*
X20240000Y-53260000D03*
D16*
X32930000Y-46876000D03*
X28930000Y-46876000D03*
D15*
X32870000Y-50576000D03*
X28870000Y-50576000D03*
D16*
X16240000Y-48180000D03*
X20240000Y-48180000D03*
X15965000Y-27105000D03*
X19965000Y-27105000D03*
D15*
X15965000Y-32185000D03*
X19965000Y-32185000D03*
D17*
X17980000Y-23480000D03*
X17980000Y-21780000D03*
D18*
G36*
X18573000Y-22973000D02*
X17427000Y-22973000D01*
X17427000Y-22227000D01*
X18573000Y-22227000D01*
X18573000Y-22973000D01*
X18573000Y-22973000D01*
G37*
X18573000Y-22973000D02*
X17427000Y-22973000D01*
X17427000Y-22227000D01*
X18573000Y-22227000D01*
X18573000Y-22973000D01*
M02*
